<svg
    xmlns="http://www.w3.org/2000/svg"
    xmlns:xlink="http://www.w3.org/1999/xlink"
    width="1347.2672"
    height="1019.3471"
    viewBox="0 0 1347.2672 1019.3471"
>
    <defs>
        <linearGradient
            id="e4affed9-8d0b-4d69-85e2-4c88cc911ead"
            data-name="Áåçûìÿííûé ãðàäèåíò 8"
            x1="384.861"
            y1="1031.9358"
            x2="384.861"
            y2="997"
            gradientUnits="userSpaceOnUse"
        >
            <stop offset="0" stop-color="#481e0f" />
            <stop offset="0.289" stop-color="#4d1e0f" />
            <stop offset="0.6113" stop-color="#5a1e11" />
            <stop offset="0.6297" stop-color="#5b1e11" />
            <stop offset="0.8545" stop-color="#6e3221" />
            <stop offset="1" stop-color="#7d412e" />
        </linearGradient>
        <linearGradient
            id="b564a762-2585-47ce-bf79-12662915c917"
            data-name="Áåçûìÿííûé ãðàäèåíò 3"
            x1="367.6286"
            y1="1014.5001"
            x2="408.1194"
            y2="1014.5001"
            gradientUnits="userSpaceOnUse"
        >
            <stop offset="0" stop-color="#bd6c6b" />
            <stop offset="1" stop-color="#774437" />
        </linearGradient>
        <linearGradient
            id="e9718b97-d091-45e6-82a2-5fa9e38dadde"
            x1="383.5243"
            y1="1013.5036"
            x2="408.0572"
            y2="1013.5036"
            xlink:href="#b564a762-2585-47ce-bf79-12662915c917"
        />
        <linearGradient
            id="b5073b43-f266-4c5a-92b3-8a73d958e989"
            data-name="Áåçûìÿííûé ãðàäèåíò 9"
            x1="1230.211"
            y1="1038.3471"
            x2="1230.211"
            y2="1007"
            gradientUnits="userSpaceOnUse"
        >
            <stop offset="0" stop-color="#590c10" />
            <stop offset="1" stop-color="#784935" />
        </linearGradient>
        <linearGradient
            id="e2124ce9-6ce7-4907-b9f6-57d16364bd21"
            data-name="Áåçûìÿííûé ãðàäèåíò 5"
            x1="1208.0008"
            y1="1022.6736"
            x2="1252.4212"
            y2="1022.6736"
            gradientUnits="userSpaceOnUse"
        >
            <stop offset="0" stop-color="#bd5754" />
            <stop offset="1" stop-color="#773b28" />
        </linearGradient>
        <linearGradient
            id="bee8d725-0817-4997-a74b-b4df5bd05d72"
            x1="1216.0965"
            y1="1022.5188"
            x2="1252.4212"
            y2="1022.5188"
            xlink:href="#e2124ce9-6ce7-4907-b9f6-57d16364bd21"
        />
        <linearGradient
            id="aff950ef-19bb-41a5-b679-931a293c6133"
            x1="953.84"
            y1="1004.1637"
            x2="961.0438"
            y2="1004.1637"
            xlink:href="#e2124ce9-6ce7-4907-b9f6-57d16364bd21"
        />
        <linearGradient
            id="baf4030d-efd6-4f05-87ec-7f8744e2e30f"
            data-name="Áåçûìÿííûé ãðàäèåíò 15"
            x1="804.1296"
            y1="945.5832"
            x2="804.1296"
            y2="924.8755"
            gradientTransform="translate(-65.7207 129.3394) rotate(-2.7914)"
            gradientUnits="userSpaceOnUse"
        >
            <stop offset="0" stop-color="#602d16" />
            <stop offset="0.0293" stop-color="#602c16" />
            <stop offset="0.541" stop-color="#641f18" />
            <stop offset="1" stop-color="#651a18" />
        </linearGradient>
        <linearGradient
            id="fb271ebc-deb9-4fce-9ffc-77637d22a284"
            data-name="Áåçûìÿííûé ãðàäèåíò 4"
            x1="797.3632"
            y1="940.3552"
            x2="813.971"
            y2="940.3552"
            gradientTransform="translate(-65.7207 129.3394) rotate(-2.7914)"
            gradientUnits="userSpaceOnUse"
        >
            <stop offset="0" stop-color="#4b1c19" />
            <stop offset="1" stop-color="#311408" />
        </linearGradient>
        <linearGradient
            id="adb63ad0-2c49-4ec8-9325-8ac86e9b75f6"
            data-name="Áåçûìÿííûé ãðàäèåíò 2"
            x1="1000.7815"
            y1="1155.3672"
            x2="1000.7815"
            y2="1136.9837"
            gradientTransform="matrix(0.7748, -0.6321, 0.6321, 0.7748, 93.4901, 577.8802)"
            gradientUnits="userSpaceOnUse"
        >
            <stop offset="0" stop-color="#4b0e20" />
            <stop offset="1" stop-color="#310e09" />
        </linearGradient>
        <linearGradient
            id="a37c6090-7ecc-4892-b1fd-973ef0f8cd60"
            x1="994.7747"
            y1="1150.7255"
            x2="1009.5181"
            y2="1150.7255"
            xlink:href="#adb63ad0-2c49-4ec8-9325-8ac86e9b75f6"
        />
        <linearGradient
            id="b8ac0182-46f3-423b-b691-4909d9b6b9b2"
            x1="1628.5985"
            y1="1008.2596"
            x2="1628.5985"
            y2="989.876"
            gradientTransform="matrix(0.4408, 0.8976, -1.619, 0.7951, 2474.4396, -1488.1086)"
            xlink:href="#adb63ad0-2c49-4ec8-9325-8ac86e9b75f6"
        />
        <linearGradient
            id="a5b81472-71ea-42dc-9e78-7ba0d4666410"
            x1="1622.5917"
            y1="1003.6179"
            x2="1637.3351"
            y2="1003.6179"
            gradientTransform="matrix(0.4408, 0.8976, -1.619, 0.7951, 2474.4396, -1488.1086)"
            xlink:href="#adb63ad0-2c49-4ec8-9325-8ac86e9b75f6"
        />
        <linearGradient
            id="b93d88ff-ab89-4f1d-a70e-039cb62d25f0"
            x1="100.8309"
            y1="729.8578"
            x2="1314.4198"
            y2="551.1733"
            gradientUnits="userSpaceOnUse"
        >
            <stop offset="0" stop-color="#a8a8a8" />
            <stop offset="0.0258" stop-color="#9a9a9a" />
            <stop offset="0.0971" stop-color="#787878" />
            <stop offset="0.1762" stop-color="#5b5b5b" />
            <stop offset="0.2641" stop-color="#444" />
            <stop offset="0.3643" stop-color="#323232" />
            <stop offset="0.4841" stop-color="#252525" />
            <stop offset="0.6431" stop-color="#1e1e1e" />
            <stop offset="1" stop-color="#1c1c1c" />
        </linearGradient>
        <linearGradient
            id="e51b9dd3-94b2-4397-a71f-ef8b77bb6af3"
            x1="103.7321"
            y1="747.6923"
            x2="230.0521"
            y2="816.7461"
            gradientUnits="userSpaceOnUse"
        >
            <stop offset="0.0221" stop-color="#7f3232" />
            <stop offset="0.1779" stop-color="#772b2b" />
            <stop offset="0.6606" stop-color="#651a1a" />
            <stop offset="0.9997" stop-color="#5e1414" />
        </linearGradient>
        <linearGradient
            id="b50d9284-8fbc-44fd-8ef9-a86897cb1997"
            x1="228.6619"
            y1="893"
            x2="277.6619"
            y2="893"
            gradientUnits="userSpaceOnUse"
        >
            <stop offset="0" stop-color="#4f0816" />
            <stop offset="0.4142" stop-color="#570f15" />
            <stop offset="0.9997" stop-color="#5e1414" />
        </linearGradient>
        <linearGradient
            id="e7bf86dd-ab0b-40f6-bc8c-0dcee866d7e2"
            x1="231.1819"
            y1="905.7302"
            x2="537.5676"
            y2="873.8653"
            gradientUnits="userSpaceOnUse"
        >
            <stop offset="0.0221" stop-color="#5b0d0d" />
            <stop offset="0.4926" stop-color="#661616" />
            <stop offset="0.9997" stop-color="#6d1b1b" />
        </linearGradient>
        <linearGradient
            id="b0ccc3bb-4f64-4ae3-9114-e66aaa1805ae"
            x1="529.4869"
            y1="859.7278"
            x2="634.7753"
            y2="893.2927"
            gradientUnits="userSpaceOnUse"
        >
            <stop offset="0.0419" stop-color="#5e1111" />
            <stop offset="0.4388" stop-color="#661717" />
            <stop offset="0.9997" stop-color="#6d1b1b" />
        </linearGradient>
        <linearGradient
            id="ac09cc3a-6e91-4964-b14d-56014dbbb314"
            x1="561.3167"
            y1="885.3724"
            x2="840.315"
            y2="831.3557"
            gradientUnits="userSpaceOnUse"
        >
            <stop offset="0.065" stop-color="#510b0b" />
            <stop offset="0.6789" stop-color="#560e0e" />
            <stop offset="0.9997" stop-color="#5b1111" />
        </linearGradient>
        <linearGradient
            id="af4efc27-96fe-42d3-9bec-4b8b014aa77e"
            x1="816.8164"
            y1="831.2471"
            x2="1195.8461"
            y2="747.1052"
            gradientUnits="userSpaceOnUse"
        >
            <stop offset="0.0427" stop-color="#561414" />
            <stop offset="0.5663" stop-color="#450b0b" />
            <stop offset="1" stop-color="#3d0707" />
        </linearGradient>
        <linearGradient
            id="b3a0c1bc-06ae-4c0e-8c91-46ec9f0d9ad3"
            x1="1106.6459"
            y1="744.1936"
            x2="1332.6371"
            y2="660.9803"
            gradientUnits="userSpaceOnUse"
        >
            <stop offset="0.0427" stop-color="#380707" />
            <stop offset="1" stop-color="#330505" />
        </linearGradient>
    </defs>
    <title>traffic_light</title>
    <g style="isolation: isolate">
        <g id="ba826bdd-4a04-4e45-9ad2-db27dce1e27a" data-name="Layer 4">
            <g opacity="0.83">
                <path
                    d="M408.1194,997.3755c-.0641,2.2808-2.3313,14.1438-2.3313,14.1438l.0642,4.9252-2.0728,2.4636s.1283,4.8611-.1945,5.703c-.3247.842-1.75,5.12-1.75,5.12l-11.9913,2.205-.0642-.035-.06-.033-.037-.0195-.0719-.0389c-.805-.4394-3.4339-1.8763-3.7392-2.0066l-.0136-.0058a5.08,5.08,0,0,0-1.2308,0l-14.033-1.75-.6164-.422h-6.3835l-1.9931-1.5069,1.2153-2.625-.0486-.7778,4.8611-3.4027,3.5-5.3958,1.6528-.8264,1.4583-3.5972,5.6389-5.0556,3.3542.632s10.8888-7.1614,16.4635-8.0694l2.5919.7778.4881-.0662.1575-.0213h.0058l.5814-.08,1.855-.2508.6766-.0914.9489-.1283c.1575-.0214.3053-.0428.4356-.0584l.15-.0194c.0622-.01.1225-.0175.175-.0233l.1458-.0195.15-.0194C408.1078,996.9943,408.1272,997.1285,408.1194,997.3755Z"
                    transform="translate(-257.3381 -19)"
                    fill-rule="evenodd"
                    fill="url(#e4affed9-8d0b-4d69-85e2-4c88cc911ead)"
                />
                <path
                    d="M405.8523,1016.4445l-2.0728,2.4636s.1283,4.8611-.1945,5.703c-.3247.842-1.75,5.12-1.75,5.12l-1.783.2762L396.1631,1032l-6.3194-.0642-.0642-.035-.06-.033-.037-.0195-.0719-.0389-3.7392-2.0066-.0136-.0058h-1.2308l-1.1355-2.5609-.3228-1.2969-8.3786-3.045-2.5764,3.045-1.62,2.1078-.6164-.422,2.6581-2.3664,1.3611-1.6527-2.9808-5.0867-3.3872.7934,3.5486-2.4461,5.1527-1.3942,5.8333-3.4028.875-3.3055,5.7361-4.5694L399.6962,997l2.5919.7778.4881-.0662.1575-.0213h.0058l.5814-.08,1.855-.2508.6766-.0914,1.5342-.2061.175-.0233.1458-.0195.15-.0194.0622.3753c-.0641,2.2808-2.3313,14.1438-2.3313,14.1438Z"
                    transform="translate(-257.3381 -19)"
                    fill-rule="evenodd"
                    opacity="0.5"
                    fill="url(#b564a762-2585-47ce-bf79-12662915c917)"
                    style="mix-blend-mode: multiply"
                />
                <path
                    d="M405.7881,1011.5193,408.0572,997l-5.7691.7778L399.6962,997l-4.7639,16.09-5.0886,5.4288-.2411,1.4875-1.995,1.7209-.9392.3558-3.1441,4.1164,1.1025,3.5972h1.2308l.34-4.7,4.7308-4.165,6.79-.9256,2.09,9.3041.243.6962,2.1116-1.2561,1.4214-4.14s.2917-3.9841.1945-5.703l2.0728-2.4636Zm-14.6475,7.1613V1018l4.1767-4.4586,4.5072,2.903Z"
                    transform="translate(-257.3381 -19)"
                    fill-rule="evenodd"
                    opacity="0.6"
                    fill="url(#e9718b97-d091-45e6-82a2-5fa9e38dadde)"
                    style="mix-blend-mode: multiply"
                />
            </g>
        </g>
        <g id="a4c7e528-10c7-450b-9c23-86351c1a8f8e" data-name="Layer 5">
            <g>
                <path
                    d="M1252.4212,1007v3.8423s-7.6785,12.66-13.9059,20.2392l-4.2534,1.8683-1.4572,4.9819a19.07,19.07,0,0,1-7.1616.1059l-.4172-.1059-3.0078-3.1137h-3.3193l-10.1694-12.1435-.7286-7.99S1230.8368,1007.2117,1252.4212,1007Z"
                    transform="translate(-257.3381 -19)"
                    fill-rule="evenodd"
                    fill="url(#b5073b43-f266-4c5a-92b3-8a73d958e989)"
                />
                <path
                    d="M1252.4212,1007v3.8423s-7.6785,12.66-13.9059,20.2392l-4.2534,1.8683-1.4572,4.9819a19.07,19.07,0,0,1-7.1616.1059l-.4172-.1059-3.0078-3.1137h-3.3193l-10.1694-12.1435-.7286-7.99,3.1773,4.9972,7.2038,1.9526-6.1278.1557,3.8424,2.7525,5.449-1.3513,1.09-.5169,25.8439-10.2753Z"
                    transform="translate(-257.3381 -19)"
                    fill-rule="evenodd"
                    opacity="0.5"
                    fill="url(#e2124ce9-6ce7-4907-b9f6-57d16364bd21)"
                    style="mix-blend-mode: multiply"
                />
                <path
                    d="M1216.0965,1024.5427l.7265,4.7744,2.0758,5.5009h3.3193l3.425,3.22-.4151-4.05,7.5788-1.5568,1.0669,1.8463.3882-1.3274,4.2534-1.8683s11.828-16.0875,13.9059-20.2392V1007l-3.942,5.3992-22.73,10.7942-3.1137.9341Z"
                    transform="translate(-257.3381 -19)"
                    fill-rule="evenodd"
                    opacity="0.5"
                    fill="url(#bee8d725-0817-4997-a74b-b4df5bd05d72)"
                    style="mix-blend-mode: multiply"
                />
                <polygon
                    points="953.84 1000.682 954.717 1007.646 954.916 1002.79 961.044 1002.635 953.84 1000.682"
                    fill-rule="evenodd"
                    opacity="0.5"
                    fill="url(#aff950ef-19bb-41a5-b679-931a293c6133)"
                    style="mix-blend-mode: multiply"
                />
            </g>
        </g>
        <g id="ac263379-8ca7-4d8b-ab3a-08ab60769032" data-name="Layer 8">
            <g opacity="0.76">
                <path
                    d="M1117.2916,998.4825s-8.5456-10.081-9.6691-14.2692l8.457-3.1487,2.2919-1.358.8765,1.8709,9.3765-4.1679a11.7862,11.7862,0,0,1,1.6177,6.2322l-.85,5.4712s-.3341,3.6889-1.89,5.1383C1127.5028,994.2513,1125.0882,998.03,1117.2916,998.4825Z"
                    transform="translate(-257.3381 -19)"
                    fill="#5b1110"
                />
                <path
                    d="M1107.6225,984.2133a14.2846,14.2846,0,0,0,7.9516,5.76,35.5292,35.5292,0,0,0,9.8936-6.6139l-.8666-1.5075,2.0494-.1255a14.8776,14.8776,0,0,0,1.9739-4.3163,56.9645,56.9645,0,0,0-10.7732,3.8519l.52-1.5549A41.2938,41.2938,0,0,0,1107.6225,984.2133Z"
                    transform="translate(-257.3381 -19)"
                    fill="#984e36"
                />
                <path
                    d="M1115.5741,989.9728s.4108,5.8382,1.7175,8.51a65.4083,65.4083,0,0,1-9.6691-14.2692S1112.3162,988.5388,1115.5741,989.9728Z"
                    transform="translate(-257.3381 -19)"
                    fill="#46060d"
                />
                <path
                    d="M1124.6011,981.8514l1.4508,1.45,1.6875,7.953s-.0174-6.8165-1.0889-9.5283Z"
                    transform="translate(-257.3381 -19)"
                    fill="#46060d"
                />
                <path
                    d="M1107.8065,984.38s4.5862,3.4293,6.9793,3.9292,6.7088-3.6287,6.9588-4.1844-.2575-1.2711,1.8519-2.9413,2.0195-2.3611,1.4262-2.29-4.0091,2.1722-6.144,2.7585-1.3318-.8869-2.6527-.6747S1109.267,983.1085,1107.8065,984.38Z"
                    transform="translate(-257.3381 -19)"
                    fill="#d2cd8e"
                    opacity="0.2"
                    style="mix-blend-mode: soft-light"
                />
                <path
                    d="M1108.994,985.4166s4.9534,3.226,6.4654,3.1687,7.6362-2.8438,10.0083-5.2264a29.6081,29.6081,0,0,1-9.8936,6.6139A39.5222,39.5222,0,0,1,1108.994,985.4166Z"
                    transform="translate(-257.3381 -19)"
                    fill="#b05b40"
                />
                <polygon
                    points="857.407 970.502 858.298 971.695 858.982 970.629 857.407 970.502"
                    fill="#d27c4b"
                />
                <path
                    d="M1126.0056,981.7654,1127,982.893v-1.82S1126.1734,981.4382,1126.0056,981.7654Z"
                    transform="translate(-257.3381 -19)"
                    fill="#b05b40"
                />
            </g>
            <g>
                <path
                    d="M280.9234,952l-17.442,10.9269L259.846,967.19l-2.3371,1.9053s-1.2076,5.8363,2.7991,14.4859c0,0,11.1343,6.0285,17.9388,5.7388l11.4412-2.8935Z"
                    transform="translate(-257.3381 -19)"
                    fill="#5b161f"
                />
                <path
                    d="M289.688,986.426l-20.9524-7.8191-1.0177-12.7128,4.4093-2.0425L280.9234,952s6.8966,10.5368,9.472,20.4478C290.3954,972.4478,291.6336,982.0862,289.688,986.426Z"
                    transform="translate(-257.3381 -19)"
                    fill="#985141"
                />
                <path
                    d="M268.7356,978.6069s-6.0462,1.4721-8.4276,4.9738c0,0,5.8949,5.9533,17.9388,5.7388,0,0,8.79-.92,11.4412-2.8935C289.688,986.426,275.2738,982.5186,268.7356,978.6069Z"
                    transform="translate(-257.3381 -19)"
                    fill="#460b1b"
                />
                <polygon
                    points="14.789 944.852 20.907 942.018 17.383 941.357 14.789 944.852"
                    fill="#6e2c34"
                />
                <path
                    d="M267.7179,965.8941s.9652,6.4279,4.62,9.9739,17.35,10.558,17.35,10.558-16.0762-4.0383-20.9524-7.8191Z"
                    transform="translate(-257.3381 -19)"
                    fill="#b05e4d"
                />
                <polygon
                    points="9.552 960.095 11.184 956.939 12.866 960.571 9.552 960.095"
                    fill="#d27e5a"
                />
                <polygon
                    points="0.171 950.095 10.38 946.894 14.789 944.852 23.585 933 6.143 943.927 2.867 948.081 0.171 950.095"
                    fill="#6e2c34"
                />
            </g>
            <g opacity="0.74">
                <path
                    d="M772.9854,1021.1806l3.6,10.704,14.69,2.3628,1.5389-10.5434s-.9541-6.9327-9.7146-9.79C783.1,1013.914,774.279,1018.244,772.9854,1021.1806Z"
                    transform="translate(-257.3381 -19)"
                    fill-rule="evenodd"
                    fill="url(#baf4030d-efd6-4f05-87ec-7f8744e2e30f)"
                />
                <path
                    d="M776.5858,1031.8846l2.4855-5.8689,13.7429-2.3117-1.5389,10.5434A49.0306,49.0306,0,0,1,776.5858,1031.8846Z"
                    transform="translate(-257.3381 -19)"
                    fill-rule="evenodd"
                    fill="url(#fb271ebc-deb9-4fce-9ffc-77637d22a284)"
                />
            </g>
            <g>
                <path
                    d="M1584.6533,836.3491l8.213,5.7485,11.7391-6.0537-4.4583-8.3433s-4.335-4.449-12.0986-1.8732C1588.0485,825.8274,1584.0292,833.57,1584.6533,836.3491Z"
                    transform="translate(-257.3381 -19)"
                    fill-rule="evenodd"
                    fill="url(#adb63ad0-2c49-4ec8-9325-8ac86e9b75f6)"
                />
                <path
                    d="M1592.8663,842.0976l-1.3177-5.5016,8.5985-8.8954,4.4583,8.3433A43.536,43.536,0,0,1,1592.8663,842.0976Z"
                    transform="translate(-257.3381 -19)"
                    fill-rule="evenodd"
                    fill="url(#a37c6090-7ecc-4892-b1fd-973ef0f8cd60)"
                />
            </g>
            <g>
                <path
                    d="M1576.0722,757.6417l-14.4148,10.12,1.2753,13.7707,15.8323-5.7475s9.7777-5.41,11.1234-14.587C1589.8884,761.1979,1580.7591,756.7587,1576.0722,757.6417Z"
                    transform="translate(-257.3381 -19)"
                    fill-rule="evenodd"
                    fill="url(#b8ac0182-46f3-423b-b691-4909d9b6b9b2)"
                />
                <path
                    d="M1561.6574,767.7617l9.3336-1.8464,7.774,9.87-15.8323,5.7475S1560.5534,776.3134,1561.6574,767.7617Z"
                    transform="translate(-257.3381 -19)"
                    fill-rule="evenodd"
                    fill="url(#a5b81472-71ea-42dc-9e78-7ba0d4666410)"
                />
            </g>
        </g>
        <g id="a8a2e531-e7a8-4957-82b9-e6a4dc521191" data-name="Layer 10">
            <g>
                <polygon
                    points="89.662 600 147.662 588 724.662 547 1102.662 488 1182.662 531 1342.662 565 1186.662 633 1031.662 692 840.662 740 554.662 798 523.662 794 228.662 820 174.662 769 172.662 735 135.662 715 96.09 654 100.662 651 89.662 600"
                    fill="url(#b93d88ff-ab89-4f1d-a70e-039cb62d25f0)"
                />
                <path
                    d="M523,691l6,24s88-8,105-15c0,0-3-17-7-23C627,677,533,690,523,691Z"
                    transform="translate(-257.3381 -19)"
                    fill="#fff"
                />
                <path
                    d="M729,678l16,21s97-13,109-15c0,0-7-7-9-26C845,658,775,672,729,678Z"
                    transform="translate(-257.3381 -19)"
                    fill="#fff"
                />
                <path
                    d="M955,639.7143,961,663s68-6,106-17l-9-20S986,639.4286,955,639.7143Z"
                    transform="translate(-257.3381 -19)"
                    fill="#fff"
                />
                <path
                    d="M1167,619l17,20s83-18,88-22l-9-22S1193,616,1167,619Z"
                    transform="translate(-257.3381 -19)"
                    fill="#fff"
                />
            </g>
        </g>
        <g id="b5ce9fb1-44de-44cd-b70a-e98cb45a74d8" data-name="Layer 11">
            <g>
                <polygon
                    points="89.662 600 80.662 638 132.662 879 239.662 962 228.662 820 174.662 769 172.662 735 135.662 715 96.09 654 100.662 651 89.662 600"
                    fill="url(#e51b9dd3-94b2-4397-a71f-ef8b77bb6af3)"
                />
                <polygon
                    points="239.662 962 277.662 966 228.662 820 239.662 962"
                    fill="url(#b50d9284-8fbc-44fd-8ef9-a86897cb1997)"
                />
                <polygon
                    points="523.662 794 543.662 934 449.662 969 277.662 966 228.662 820 523.662 794"
                    fill="url(#e7bf86dd-ab0b-40f6-bc8c-0dcee866d7e2)"
                />
                <polygon
                    points="523.662 794 554.662 798 634.162 962 543.662 934 523.662 794"
                    fill="url(#b0ccc3bb-4f64-4ae3-9114-e66aaa1805ae)"
                />
                <polygon
                    points="634.162 962 700.662 925 781.662 934 805.662 921 840.662 740 554.662 798 634.162 962"
                    fill="url(#ac09cc3a-6e91-4964-b14d-56014dbbb314)"
                />
                <polygon
                    points="840.662 740 1031.662 692 1186.662 633 1127.662 801 1091.662 842 899.662 929 867.662 913 805.662 921 840.662 740"
                    fill="url(#af4efc27-96fe-42d3-9bec-4b8b014aa77e)"
                />
                <polygon
                    points="1186.662 633 1342.662 565 1269.662 674 1248.662 753 1091.662 842 1127.662 801 1186.662 633"
                    fill="url(#b3a0c1bc-06ae-4c0e-8c91-46ec9f0d9ad3)"
                />
            </g>
        </g>
        <g
            id="e65eda1e-a9f3-4501-b7da-ea07bf5a94eb"
            data-name="traffic-light-leds"
        >
            <polygon
                points="1088.662 373 1088.662 529.214 1131.662 537 1135.662 380 1088.662 373"
                fill="#262626"
            />
            <polygon
                points="1018.662 322 1038.662 360 1088.662 373 1135.662 380 1177.662 378 1204.805 351 1220.662 34 1209.662 20 1126.662 0 1049.662 51 1030.662 80 1018.662 322"
                fill="#474747"
            />
            <polygon
                points="1049.662 51 1111.376 51 1155.662 67 1209.662 20 1126.662 0 1049.662 51"
                fill="#353535"
            />
            <polygon
                points="1209.662 20 1220.662 34 1204.805 351 1177.662 378 1135.662 380 1148.662 368 1160.662 330 1166.662 76 1155.662 67 1209.662 20"
                fill="#2d2d2d"
            />
            <g>
                <image
                    id="green-led"
                    width="188"
                    height="190"
                    transform="translate(998.6619 44)"
                    opacity="0.85"
                    xlink:href="green-led.png"
                    style="mix-blend-mode: screen"
                />
                <path
                    d="M1353,109c-32.91-2.4378-53,30-51,67s56,38,77,22,23-48,14-64S1380,111,1353,109Z"
                    transform="translate(-257.3381 -19)"
                    fill="#16c450"
                />
            </g>
            <g>
                <image
                    id="red-led"
                    width="190"
                    height="197"
                    transform="translate(998.6619 174)"
                    opacity="0.85"
                    xlink:href="red-led.png"
                    style="mix-blend-mode: screen"
                />
                <path
                    d="M1352,239c-20.7793-3.1968-46.2734,14.8571-50.1367,63.4286S1357,351,1379,333s22-33,21-47S1391,245,1352,239Z"
                    transform="translate(-257.3381 -19)"
                    fill="#ff4545"
                />
            </g>
        </g>
    </g>
</svg>
