<svg xmlns="http://www.w3.org/2000/svg" viewBox="0 0 1164.08 571.78"><title>message_frame</title><g style="isolation:isolate"><g id="f8f3a2e0-cb6e-486d-b5ec-cb5ef17f28d1" data-name="Layer 3"><g opacity="0.82"><path d="M1477.4,922.38H571.12l-14.49-14.5H342.34V375.28h812.15l20.41,20.42h302.5Zm-905.25-2.49h902.77V398.18H1173.87l-20.41-20.41H344.83V905.4H557.66Z" transform="translate(-334.89 -362.65)" fill="#3b69b2"/><g opacity="0.1" style="mix-blend-mode:screen"><polygon points="239.84 551.02 225.35 536.53 16.15 536.53 16.15 21.33 816 21.33 836.41 41.74 1133.82 41.74 1133.82 551.02 239.84 551.02" fill="#3b69b2"/><path d="M1469.33,914.3H574.47L560,899.8H350.42V383.36h800.72l20.42,20.42h297.77ZM575,913.06h893.11V405H1171l-20.41-20.42h-799v514H560.49Z" transform="translate(-334.89 -362.65)" fill="#7fd0df"/></g><rect x="1149.17" y="73.49" width="14.91" height="119.23" fill="#7fd0df"/><rect x="1149.17" y="208.19" width="14.91" height="10.16" fill="#7fd0df"/><rect x="1149.17" y="223.38" width="14.91" height="10.16" fill="#7fd0df"/><rect x="1149.17" y="238.58" width="14.91" height="10.16" fill="#7fd0df"/><rect x="1149.17" y="253.77" width="14.91" height="10.16" fill="#7fd0df"/><polygon points="228.42 571.78 214.29 557.65 1.24 557.65 1.24 555.17 215.32 555.17 230.17 570.03 228.42 571.78" fill="#3b69b2"/><polygon points="1148.73 23.1 846.44 23.1 825.66 2.32 827.42 0.57 847.47 20.62 1148.73 20.62 1148.73 23.1" fill="#3b69b2"/><rect y="42.14" width="17.4" height="4.97" fill="#7fd0df"/><path d="M352.28,677.09H334.89v-9.9h17.39Zm0-22.27H334.89v-9.9h17.39Zm0-22.28H334.89v-9.9h17.39Zm0-22.28H334.89v-9.9h17.39Zm0-22.28H334.89v-9.9h17.39Zm0-22.27H334.89v-9.9h17.39Zm0-22.28H334.89v-9.9h17.39Zm0-22.28H334.89v-9.9h17.39Zm0-22.27H334.89V489h17.39Zm0-22.28H334.89v-9.9h17.39Zm0-22.28H334.89v-9.9h17.39Zm0-22.28H334.89v-9.9h17.39Z" transform="translate(-334.89 -362.65)" fill="#7fd0df"/><rect y="326.82" width="17.4" height="4.97" fill="#7fd0df"/><path d="M467.28,362.65h357L852,390.4H467.28Zm-11,0H440.31V390.4h15.94Zm-35.55,0H403.49V390.4H420.7Z" transform="translate(-334.89 -362.65)" fill="#3b69b2"/><path d="M672.33,902.72h-3.26V887.35h3.26Zm6.33-15.37H675.4v15.37h3.26Zm6.33,0h-3.26v15.37H685Zm6.33,0h-3.26v15.37h3.26Zm6.33,0h-3.26v15.37h3.26Zm6.33,0h-3.26v15.37H704Zm6.33,0h-3.25v15.37h3.25Zm6.33,0h-3.25v15.37h3.25Zm6.33,0h-3.25v15.37H723Zm6.33,0h-3.25v15.37h3.25Zm6.33,0h-3.25v15.37h3.25Zm6.33,0h-3.25v15.37H742Zm6.33,0H745v15.37h3.25Zm6.33,0h-3.25v15.37h3.25Zm6.33,0H757.7v15.37H761Zm6.33,0H764v15.37h3.25Zm6.33,0h-3.25v15.37h3.25Zm6.33,0h-3.25v15.37h3.25Zm6.34,0H783v15.37h3.26Zm6.33,0h-3.26v15.37h3.26Zm6.33,0h-3.26v15.37h3.26Z" transform="translate(-334.89 -362.65)" fill="#3b69b2"/></g></g></g></svg>