<svg
    id="f0915df6-8220-4ff1-b286-9c9cfdaa35c9"
    data-name="Layer 3"
    xmlns="http://www.w3.org/2000/svg"
    xmlns:xlink="http://www.w3.org/1999/xlink"
    viewBox="0 0 848.03 845.74"
>
    <defs>
        <linearGradient
            id="e8dfca14-be26-4c12-9c20-fa36ba1dac6f"
            x1="89.99"
            y1="690.28"
            x2="588.04"
            y2="287.66"
            gradientUnits="userSpaceOnUse"
        >
            <stop offset="0" stop-color="#291e3a" />
            <stop offset="0.11" stop-color="#2e233f" />
            <stop offset="0.24" stop-color="#3c324c" />
            <stop offset="0.38" stop-color="#544b61" />
            <stop offset="0.53" stop-color="#746d7f" />
            <stop offset="0.69" stop-color="#9e99a6" />
            <stop offset="0.85" stop-color="#d1cfd5" />
            <stop offset="0.98" stop-color="#fff" />
        </linearGradient>
    </defs>
    <title>ufo</title>
    <path
        d="M1453,32.46a11.31,11.31,0,0,0-1.77,15.88l374.33,467.9a11.31,11.31,0,0,0,15.88,1.77h0L1453,32.46Z"
        transform="translate(-1003.03 -29.98)"
        fill="#063653"
    />
    <path
        d="M1843.17,502.13,1468.85,34.22A11.3,11.3,0,0,0,1453,32.46L1841.41,518A11.3,11.3,0,0,0,1843.17,502.13Z"
        transform="translate(-1003.03 -29.98)"
        fill="#0091b5"
    />
    <path
        d="M1824.4,514.84c-20.53,16.42-119.08-72.62-220.11-198.91S1438,74,1458.56,57.54Z"
        transform="translate(-1003.03 -29.98)"
        fill="#4fc3dd"
    />
    <path
        d="M1823.57,513.8C1795.9,517.86,1703,432,1607.87,313.07S1449.35,84.68,1459.39,58.58Z"
        transform="translate(-1003.03 -29.98)"
        fill="#1b4a69"
    />
    <ellipse
        cx="1609.9"
        cy="305.06"
        rx="16.63"
        ry="92.63"
        transform="translate(-840.82 1042.56) rotate(-38.66)"
        fill="#063653"
    />
    <rect
        x="1541.63"
        y="237.75"
        width="20.85"
        height="16.65"
        transform="translate(-228.39 -1149.58) rotate(51.34)"
        fill="#063653"
    />
    <rect
        x="1644.33"
        y="366.12"
        width="20.85"
        height="16.65"
        transform="translate(-89.59 -1181.6) rotate(51.34)"
        fill="#063653"
    />
    <ellipse
        cx="1596.91"
        cy="315.46"
        rx="16.63"
        ry="92.63"
        transform="matrix(0.78, -0.62, 0.62, 0.78, -850.17, 1036.72)"
        fill="#abdaca"
    />
    <ellipse
        cx="1596.91"
        cy="315.46"
        rx="10.58"
        ry="85.07"
        transform="translate(-850.17 1036.72) rotate(-38.66)"
        fill="#fff"
    />
    <path
        d="M1651.56,188.59c-11.55-1.06-33.51-1.65-54.82,5.5L1528.68,109c27.35,2.57,60.08,20,80,32.19q4.11,4.35,8.28,8.84,15.49,16.68,31.69,35.25Q1650.12,186.92,1651.56,188.59Z"
        transform="translate(-1003.03 -29.98)"
        fill="#3c96aa"
    />
    <path
        d="M1693.18,238.44,1656,268.18l-59.27-74.09c21.31-7.15,43.27-6.56,54.82-5.5,1,1.1,1.93,2.21,2.89,3.34q18.21,21.09,36.83,44.16C1691.93,236.87,1692.55,237.65,1693.18,238.44Z"
        transform="translate(-1003.03 -29.98)"
        fill="#4fc3dd"
    />
    <path
        d="M1608.71,141.21c-20-12.17-52.68-29.62-80-32.19l-52.47-65.6C1490,32.35,1539.3,69.16,1600.86,133Q1604.76,137,1608.71,141.21Z"
        transform="translate(-1003.03 -29.98)"
        fill="#307481"
    />
    <path
        d="M1842.05,500.72l-58.71-73.39c3.64-28.43-7.24-66.15-14.82-88q3.23,4.68,6.32,9.29C1828.27,428,1856.54,489.13,1842.05,500.72Z"
        transform="translate(-1003.03 -29.98)"
        fill="#307481"
    />
    <path
        d="M1715.28,342.26,1656,268.18l37.17-29.74c.64.79,1.26,1.57,1.9,2.35l1.23,1.53c11.78,14.72,23.07,29.33,33.79,43.62l2.64,3.52C1731.31,300.8,1727.11,322.73,1715.28,342.26Z"
        transform="translate(-1003.03 -29.98)"
        fill="#4fc3dd"
    />
    <path
        d="M1783.34,427.33l-68.06-85.07c11.83-19.53,16-41.46,17.46-52.8.88,1.17,1.74,2.34,2.61,3.5,9.24,12.45,18.05,24.67,26.33,36.55q3.48,5,6.84,9.86C1776.1,361.18,1787,398.9,1783.34,427.33Z"
        transform="translate(-1003.03 -29.98)"
        fill="#3c96aa"
    />
    <path
        d="M1760.52,234.24a272.64,272.64,0,0,0-22.09-32c-41.76-52.2-95.94-82.1-136.75-79.55,12.35,12.69,33.09,34.55,57.51,62.49A203.06,203.06,0,0,1,1760.52,234.24Z"
        transform="translate(-1003.03 -29.98)"
        fill="#ef8743"
    />
    <path
        d="M1601.68,122.69a68.67,68.67,0,0,0-9.67,1.24c17.42,17.65,36,37.65,55,59.49,4.06.45,8.1,1.07,12.13,1.76C1634.77,157.24,1614,135.38,1601.68,122.69Z"
        transform="translate(-1003.03 -29.98)"
        fill="#815522"
    />
    <path
        d="M1785.76,354.05c9.6-31.46.46-76.2-25.24-119.81a203.06,203.06,0,0,0-101.33-49.06C1698.39,230,1747.05,290.56,1785.76,354.05Z"
        transform="translate(-1003.03 -29.98)"
        fill="#da7c38"
    />
    <path
        d="M1659.19,185.18c-4-.69-8.07-1.31-12.13-1.76,16.13,18.42,32.66,38.16,49.25,58.9,33.5,41.87,63.06,82.58,86.86,118.88a71.93,71.93,0,0,0,2.59-7.15C1747.05,290.56,1698.39,230,1659.19,185.18Z"
        transform="translate(-1003.03 -29.98)"
        fill="#68451a"
    />
    <path
        d="M1695.08,240.79l-37.18,29.75-3.78-4.73,37.16-29.72c.65.78,1.27,1.56,1.9,2.35S1694.44,240,1695.08,240.79Z"
        transform="translate(-1003.03 -29.98)"
        fill="#abdaca"
    />
    <path
        d="M1717.3,344.79l-4-5c12.24-20.76,15.83-44.29,16.83-53.81l2.64,3.52c.88,1.17,1.74,2.34,2.61,3.5C1733.52,305.39,1728.9,326.16,1717.3,344.79Z"
        transform="translate(-1003.03 -29.98)"
        fill="#abdaca"
    />
    <path
        d="M1785.92,430.57l-5.26-6.58c3-33-12.6-77.84-19-94.48q3.48,5,6.84,9.86,3.23,4.68,6.32,9.29C1782.21,371.92,1790.16,405.11,1785.92,430.57Z"
        transform="translate(-1003.03 -29.98)"
        fill="#abdaca"
    />
    <path
        d="M1654.45,191.93c-9.84-1.11-33.15-2.58-55.7,4.67l-4-5c20.41-7.11,41.36-7.18,54-6.26q1.44,1.62,2.88,3.29C1652.52,189.69,1653.49,190.8,1654.45,191.93Z"
        transform="translate(-1003.03 -29.98)"
        fill="#abdaca"
    />
    <path
        d="M1617,150.05c-16.42-10.73-54.42-33.59-85.63-37.69l-5.26-6.58c24.69,1.39,53.84,15.26,74.76,27.23q3.9,4,7.85,8.2Q1612.82,145.56,1617,150.05Z"
        transform="translate(-1003.03 -29.98)"
        fill="#abdaca"
    />
    <circle
        cx="1647.19"
        cy="275.23"
        r="18.67"
        transform="translate(196.68 1854.21) rotate(-83.94)"
        fill="#fff"
        opacity="0.22"
    />
    <circle cx="644.16" cy="245.25" r="6.95" fill="#f9ae80" />
    <circle cx="644.16" cy="245.25" r="3.62" fill="#f16322" />
    <circle
        cx="1587.92"
        cy="201.15"
        r="18.67"
        transform="translate(217.34 1729) rotate(-83.94)"
        fill="#fff"
        opacity="0.22"
    />
    <circle cx="584.89" cy="171.17" r="6.95" fill="#f9ae80" />
    <circle cx="584.89" cy="171.17" r="3.62" fill="#f16322" />
    <circle
        cx="1519.86"
        cy="116.07"
        r="18.67"
        transform="translate(-897.88 653.58) rotate(-26.22)"
        fill="#fff"
        opacity="0.22"
    />
    <path
        d="M1515.52,110.65a6.95,6.95,0,1,1-1.09,9.77A7,7,0,0,1,1515.52,110.65Z"
        transform="translate(-1003.03 -29.98)"
        fill="#f9ae80"
    />
    <path
        d="M1517.6,113.25a3.62,3.62,0,1,1-.57,5.09A3.61,3.61,0,0,1,1517.6,113.25Z"
        transform="translate(-1003.03 -29.98)"
        fill="#f16322"
    />
    <circle
        cx="1467.38"
        cy="50.48"
        r="18.67"
        transform="translate(-894.45 576.74) rotate(-24.23)"
        fill="#fff"
        opacity="0.22"
    />
    <circle cx="464.35" cy="20.49" r="6.95" fill="#f9ae80" />
    <circle cx="464.35" cy="20.49" r="3.62" fill="#f16322" />
    <circle
        cx="1706.45"
        cy="349.32"
        r="18.67"
        transform="translate(-987.66 736.74) rotate(-25.43)"
        fill="#fff"
        opacity="0.22"
    />
    <circle cx="703.42" cy="319.33" r="6.95" fill="#f9ae80" />
    <circle cx="703.42" cy="319.33" r="3.62" fill="#f16322" />
    <circle
        cx="1774.51"
        cy="434.39"
        r="18.67"
        transform="translate(-1017.61 774.22) rotate(-25.43)"
        fill="#fff"
        opacity="0.22"
    />
    <circle cx="771.48" cy="404.41" r="6.95" fill="#f9ae80" />
    <circle cx="771.48" cy="404.41" r="3.62" fill="#f16322" />
    <circle
        cx="1832.39"
        cy="506.74"
        r="18.67"
        transform="translate(132.13 2245.46) rotate(-83.94)"
        fill="#fff"
        opacity="0.22"
    />
    <circle cx="829.36" cy="476.75" r="6.95" fill="#f9ae80" />
    <circle cx="829.36" cy="476.75" r="3.62" fill="#f16322" />
    <polygon
        id="poly-light"
        points="374.58 845.74 0 377.51 542.06 220.7 646.55 351.32 374.58 845.74"
        opacity="0.32"
        fill="url(#e8dfca14-be26-4c12-9c20-fa36ba1dac6f)"
    />
</svg>
